<?xml version="1.0" standalone="no"?>
<!DOCTYPE svg PUBLIC "-//W3C//DTD SVG 20010904//EN"
 "http://www.w3.org/TR/2001/REC-SVG-20010904/DTD/svg10.dtd">
<svg version="1.0" xmlns="http://www.w3.org/2000/svg"
 width="938.000000pt" height="373.000000pt" viewBox="0 0 938.000000 373.000000"
 preserveAspectRatio="xMidYMid meet">

<g transform="translate(0.000000,373.000000) scale(0.100000,-0.100000)"
fill="#000000" stroke="none">
<path d="M1095 3655 c-5 -2 -22 -6 -37 -9 -37 -8 -98 -63 -114 -103 -9 -20
-14 -72 -14 -138 l0 -106 -61 -37 c-279 -170 -522 -440 -646 -717 -155 -346
-190 -683 -108 -1047 28 -124 100 -313 158 -413 144 -251 358 -473 581 -603
34 -19 64 -40 68 -46 4 -6 8 -51 8 -99 0 -51 6 -101 14 -120 16 -39 76 -94
114 -104 15 -5 1838 -8 4052 -8 l4025 0 42 24 c49 28 77 64 92 117 15 55 15
3213 0 3268 -15 53 -43 89 -92 117 l-42 24 -4015 2 c-2208 1 -4019 0 -4025 -2z
m8033 -125 c12 -8 27 -31 32 -50 14 -48 13 -3152 0 -3201 -6 -22 -20 -41 -37
-50 -22 -12 -592 -14 -4029 -14 l-4002 0 -26 24 c-25 23 -26 29 -26 133 0 60
-4 117 -9 127 -6 10 -47 39 -93 66 -239 139 -433 337 -566 578 -130 237 -183
443 -183 715 0 212 24 350 92 533 119 325 372 620 672 784 37 20 72 45 77 55
6 10 10 74 10 143 0 115 1 125 23 144 12 12 31 23 42 26 11 3 1815 4 4010 3
3528 -1 3993 -3 4013 -16z"/>
<path d="M1026 2274 c-126 -39 -243 -156 -281 -280 -18 -60 -19 -195 -2 -249
34 -109 127 -217 224 -262 259 -120 564 42 603 320 12 79 -1 171 -34 242 -29
64 -110 154 -170 189 -93 54 -237 71 -340 40z m256 -127 c130 -60 198 -189
176 -335 -10 -66 -28 -102 -81 -159 -157 -170 -434 -113 -518 107 -39 104 -13
233 64 317 92 100 235 128 359 70z"/>
</g>
</svg>
