<?xml version="1.0" standalone="no"?>
<!DOCTYPE svg PUBLIC "-//W3C//DTD SVG 20010904//EN"
 "http://www.w3.org/TR/2001/REC-SVG-20010904/DTD/svg10.dtd">
<svg version="1.0" xmlns="http://www.w3.org/2000/svg"
 width="464.000000pt" height="538.000000pt" viewBox="0 0 464.000000 538.000000"
 preserveAspectRatio="xMidYMid meet">

<g transform="translate(0.000000,538.000000) scale(0.100000,-0.100000)"
fill="#000000" stroke="none">
<path d="M2010 5099 c-156 -55 -262 -204 -247 -349 16 -153 127 -284 395 -465
76 -51 158 -106 183 -123 124 -84 221 -202 233 -284 8 -55 19 -73 41 -64 24 9
15 68 -23 150 -44 93 -121 164 -333 306 -265 177 -352 256 -415 373 -47 89
-50 164 -10 248 89 187 318 239 551 124 235 -116 393 -342 452 -645 l8 -45 37
66 c102 181 275 362 413 432 103 52 247 60 338 18 99 -45 159 -153 161 -292 1
-80 -1 -90 -38 -164 -61 -124 -218 -276 -451 -437 -101 -70 -219 -142 -460
-280 l-190 -108 -20 27 c-79 106 -152 152 -258 160 -82 7 -154 -9 -244 -53
-230 -114 -329 -388 -229 -633 33 -83 72 -135 161 -219 75 -72 141 -118 395
-278 69 -43 148 -100 176 -126 49 -46 94 -112 83 -122 -3 -3 -43 -1 -90 4
-106 12 -451 12 -586 0 -294 -26 -503 -99 -503 -175 0 -73 175 -145 475 -196
109 -19 170 -23 380 -23 227 -1 260 1 355 23 119 26 153 41 176 76 30 46 -9
91 -109 123 -49 16 -52 19 -49 47 6 55 18 58 117 29 183 -53 305 -142 305
-222 0 -23 -52 -47 -208 -97 -292 -93 -634 -122 -939 -81 -265 35 -431 90
-536 178 -40 33 -48 37 -53 23 -10 -25 13 -378 36 -565 39 -315 78 -491 132
-586 76 -136 238 -244 453 -300 86 -23 122 -27 255 -28 138 -1 168 2 273 28
239 57 374 154 479 345 16 28 22 31 50 27 18 -3 85 -13 148 -21 303 -41 498
-124 515 -219 8 -40 -15 -99 -53 -139 -57 -60 -215 -130 -382 -168 -261 -61
-563 -89 -950 -89 -615 1 -1158 85 -1395 218 -105 59 -155 119 -155 188 0 71
55 128 170 175 71 28 87 55 32 52 -78 -3 -207 -94 -237 -167 -20 -48 -19 -82
6 -133 46 -96 207 -195 399 -246 331 -88 713 -130 1185 -130 875 -1 1423 160
1425 416 0 98 -75 163 -255 222 -119 39 -382 85 -485 85 -34 0 -37 -3 -67 -64
-42 -84 -145 -194 -220 -233 -188 -100 -480 -134 -703 -84 -142 32 -283 104
-369 189 -107 107 -140 197 -191 537 -19 124 -50 449 -50 521 0 83 5 87 62 56
47 -26 160 -68 248 -91 111 -30 374 -61 514 -61 272 0 607 63 818 154 20 9 39
12 42 7 8 -13 -28 -279 -69 -515 -20 -109 -33 -201 -30 -204 9 -9 105 18 186
53 219 93 398 290 445 489 15 66 15 76 1 127 -33 113 -140 192 -260 191 -34 0
-91 -9 -127 -21 -86 -27 -94 -27 -108 12 -16 46 -82 109 -150 145 -60 31 -183
76 -242 87 -45 9 -57 20 -66 58 -12 55 -151 181 -299 271 -283 171 -399 264
-475 379 -131 200 -98 467 76 609 118 97 290 129 406 75 58 -26 142 -115 132
-140 -3 -7 -41 -36 -86 -66 -84 -57 -118 -98 -118 -143 0 -50 47 -75 121 -65
87 12 149 93 149 196 l0 59 68 38 c37 20 132 75 212 122 369 216 528 327 673
470 143 140 205 246 214 363 13 168 -52 298 -182 367 -46 24 -60 27 -165 27
-127 0 -181 -15 -276 -77 -64 -42 -248 -227 -298 -300 -22 -32 -42 -58 -46
-58 -4 0 -17 30 -29 67 -74 225 -215 399 -412 507 -136 75 -302 96 -419 55z
m618 -1643 c6 -31 -28 -105 -59 -127 -17 -12 -47 -23 -68 -26 -32 -4 -41 -2
-49 14 -17 31 6 62 83 115 73 50 88 53 93 24z m45 -1186 c48 -11 57 -16 57
-34 0 -12 -6 -30 -13 -40 -12 -16 -21 -17 -116 -6 -140 17 -356 9 -398 -13
-36 -19 -49 -47 -34 -75 19 -35 88 -55 206 -59 125 -6 212 10 297 53 58 29 99
28 175 -6 83 -37 44 -69 -120 -101 -271 -51 -706 -24 -972 62 -150 48 -191 84
-141 124 52 42 252 86 486 108 93 9 516 -1 573 -13z m-50 -129 c18 -18 -3 -29
-93 -47 -128 -25 -310 -7 -310 32 0 7 10 16 23 18 12 3 31 7 42 10 37 9 327
-2 338 -13z m937 -148 c140 -73 156 -218 44 -400 -77 -124 -196 -228 -336
-293 -81 -38 -128 -48 -128 -27 0 8 16 109 35 225 19 116 41 265 48 331 8 67
18 126 23 131 19 19 161 60 210 60 36 0 66 -8 104 -27z"/>
</g>
</svg>
